<svg width="41" height="40" viewBox="0 0 41 40" fill="none" xmlns="http://www.w3.org/2000/svg">
<path d="M10.5 10H11.8062C12.0522 10 12.1752 10 12.2742 10.0452C12.3614 10.0851 12.4353 10.1492 12.4871 10.2299C12.5459 10.3215 12.5633 10.4433 12.5981 10.6869L13.0714 14M13.0714 14L14.1233 21.7314C14.2568 22.7125 14.3235 23.2031 14.5581 23.5723C14.7648 23.8977 15.0611 24.1564 15.4114 24.3174C15.8089 24.5 16.3039 24.5 17.2941 24.5H25.852C26.7945 24.5 27.2658 24.5 27.651 24.3304C27.9905 24.1809 28.2818 23.9398 28.4923 23.6342C28.7309 23.2876 28.8191 22.8247 28.9955 21.8988L30.3191 14.9497C30.3812 14.6238 30.4122 14.4609 30.3672 14.3335C30.3278 14.2218 30.2499 14.1277 30.1475 14.068C30.0308 14 29.865 14 29.5332 14H13.0714ZM18.5 29C18.5 29.5523 18.0523 30 17.5 30C16.9477 30 16.5 29.5523 16.5 29C16.5 28.4477 16.9477 28 17.5 28C18.0523 28 18.5 28.4477 18.5 29ZM26.5 29C26.5 29.5523 26.0523 30 25.5 30C24.9477 30 24.5 29.5523 24.5 29C24.5 28.4477 24.9477 28 25.5 28C26.0523 28 26.5 28.4477 26.5 29Z" stroke="#B2B2B2" stroke-width="2" stroke-linecap="round" stroke-linejoin="round"/>
<rect x="24.5" width="16" height="16" rx="8" fill="white"/>
<path d="M32.4919 3.33325V7.99992M32.4919 7.99992V12.6666M32.4919 7.99992H27.8252M32.4919 7.99992H37.1585" stroke="#E97A35" stroke-width="1.6" stroke-linecap="round" stroke-linejoin="round"/>
</svg>
