<svg width="40" height="40" viewBox="0 0 40 40" fill="none" xmlns="http://www.w3.org/2000/svg">
<rect width="40" height="40" rx="20" fill="#F5F5F5" fill-opacity="0.6"/>
<path d="M23.5 14.75V14.05C23.5 13.0699 23.5 12.5799 23.3093 12.2055C23.1415 11.8762 22.8738 11.6085 22.5445 11.4407C22.1701 11.25 21.6801 11.25 20.7 11.25H19.3C18.3199 11.25 17.8299 11.25 17.4555 11.4407C17.1262 11.6085 16.8585 11.8762 16.6907 12.2055C16.5 12.5799 16.5 13.0699 16.5 14.05V14.75M18.25 19.5625V23.9375M21.75 19.5625V23.9375M12.125 14.75H27.875M26.125 14.75V24.55C26.125 26.0201 26.125 26.7552 25.8389 27.3167C25.5872 27.8107 25.1857 28.2122 24.6917 28.4639C24.1302 28.75 23.3951 28.75 21.925 28.75H18.075C16.6049 28.75 15.8698 28.75 15.3083 28.4639C14.8143 28.2122 14.4128 27.8107 14.1611 27.3167C13.875 26.7552 13.875 26.0201 13.875 24.55V14.75" stroke="#5A5A5A" stroke-width="1.4" stroke-linecap="round" stroke-linejoin="round"/>
</svg>
