<svg xmlns="http://www.w3.org/2000/svg" width="207" height="185"  viewBox="0 0 207 185" fill="none">
  <path d="M130.184 127.382C124.247 132.671 115.17 132.254 109.928 126.432C104.687 120.61 105.236 111.589 111.173 106.3C117.11 101.01 126.187 101.428 131.428 107.25C136.67 113.071 136.121 122.093 130.184 127.382ZM44.7499 60.7156C41.1091 51.485 26.3339 31.6438 10.3856 38.6632C-5.54859 45.7049 -1.54358 67.7843 20.8656 62.4191C43.252 57.0682 46.4209 74.5852 46.4209 74.5852C46.4209 74.5852 48.3906 69.9462 44.7499 60.7156ZM35.1657 75.1928C30.648 73.0986 18.3468 70.9299 14.8618 78.8614C11.3768 86.7928 20.4172 93.4127 26.9079 83.9057C33.3986 74.3987 40.5587 79.64 40.5587 79.64C40.5587 79.64 39.6834 77.2871 35.1657 75.1928ZM35.6629 100.068C35.6629 100.068 37.7844 98.5486 40.7455 95.6902L35.6629 100.068ZM35.6629 100.068C35.6629 100.068 37.7844 98.5486 40.7455 95.6902L35.6629 100.068ZM206.156 55.2325C203.432 69.0216 198.057 80.356 193.297 88.2768C198.053 117.812 187.595 149.225 162.948 170.415C160.051 172.921 156.13 172.231 153.997 169.794C152.977 168.624 152.392 167.087 152.551 165.271L155.041 134.65C156.595 115.415 150.788 95.7158 137.224 80.0761L130.55 72.3762C127.406 68.7328 121.842 68.3564 118.129 71.5313L110.28 78.2704C94.3387 91.9649 85.3937 110.691 83.8391 129.926L80.2935 173.508C79.639 181.503 70.9744 186.539 63.8318 182.941C53.8682 177.931 44.7133 170.977 36.9906 162.063L13.4223 134.885C9.12295 129.907 9.71001 122.359 14.8066 118.004L35.7084 100.04C35.7084 100.04 37.8297 98.5201 40.7908 95.6617C49.6254 87.2109 67.6727 71.1641 60.0308 44.2525C55.8393 29.5001 58.3486 13.7542 63.4593 7.70449C71.8109 -2.22212 82.6581 -1.10657 86.6805 8.88311C90.745 18.9399 94.8608 24.9383 100.502 11.9074C103.5 4.96815 109.623 1.18572 114.519 2.41815C118.789 3.51283 122.407 3.51883 123.706 14.2203C124.408 20.0841 127.606 19.8239 130.411 18.6864L132.596 16.8145C137.67 12.4733 145.276 12.9716 149.575 17.9495L151.508 20.1688C154.753 16.1963 158.846 12.3144 163.985 9.08701C183.818 -3.46142 211.718 27.3323 206.201 55.2039L206.156 55.2325ZM166.422 22.9129C163.562 24.7713 161.239 26.9793 159.394 29.2927L173.121 45.1419C179.609 52.6465 184.618 60.9245 188.128 69.6441C190.438 65.0413 192.61 59.4633 194.007 53.1552C198.05 34.4488 179.854 14.2592 166.445 22.8986L166.422 22.9129Z" fill="#E21E43" fill-opacity="0.06"/>
</svg>